<?xml version="1.0" standalone="no"?>
<!DOCTYPE svg PUBLIC "-//W3C//DTD SVG 20010904//EN"
 "http://www.w3.org/TR/2001/REC-SVG-20010904/DTD/svg10.dtd">
<svg version="1.0" xmlns="http://www.w3.org/2000/svg"
 width="640.000000pt" height="640.000000pt" viewBox="0 0 640.000000 640.000000"
 preserveAspectRatio="xMidYMid meet">

<g transform="translate(0.000000,640.000000) scale(0.100000,-0.100000)"
fill="#000000" stroke="none">
<path d="M3725 6288 c-16 -6 -56 -29 -89 -51 l-58 -39 6 -47 c4 -25 11 -84 17
-131 5 -47 16 -110 25 -140 20 -68 178 -337 251 -425 56 -69 73 -80 135 -90
40 -6 42 -8 118 -125 27 -41 57 -85 66 -97 12 -17 -27 -2 -157 61 -489 235
-831 283 -1344 186 -160 -30 -207 -44 -311 -90 -36 -17 -73 -30 -81 -30 -16 0
-73 31 -73 40 0 3 20 16 45 30 45 25 57 40 31 40 -8 0 -17 11 -20 24 -3 13 -9
31 -12 40 -5 13 1 16 26 16 17 0 29 3 27 8 -3 4 -8 25 -11 46 -7 44 -14 55
-24 40 -4 -5 -35 -51 -69 -101 -86 -127 -156 -208 -190 -221 -15 -6 -91 -20
-169 -31 -309 -44 -559 -127 -740 -244 -75 -49 -211 -183 -263 -260 -46 -68
-87 -162 -102 -234 -15 -75 -3 -174 41 -320 102 -340 398 -661 774 -839 54
-25 103 -74 142 -140 10 -16 13 -12 23 35 9 43 9 56 -1 63 -10 6 -10 10 2 18
24 16 28 13 46 -42 9 -29 34 -70 58 -96 40 -43 41 -47 39 -108 0 -35 2 -64 6
-64 4 0 14 19 22 42 12 38 14 40 20 17 4 -13 8 -42 8 -64 1 -36 31 -194 75
-400 13 -63 26 -176 57 -500 5 -60 19 -164 30 -230 31 -184 32 -180 -42 -249
-131 -120 -425 -308 -684 -438 -82 -41 -198 -105 -256 -141 -59 -36 -169 -97
-245 -136 -77 -38 -148 -76 -159 -85 -18 -14 -18 -15 -2 -16 15 0 16 -3 6 -22
-9 -17 -9 -23 0 -26 7 -2 -3 -22 -26 -50 l-37 -45 45 26 c24 14 64 29 88 33
l43 7 -7 -51 -7 -51 69 24 c84 30 87 30 124 3 25 -19 34 -21 59 -11 25 10 34
7 67 -17 21 -15 63 -36 93 -48 82 -30 132 -59 231 -134 49 -38 89 -65 89 -62
0 3 -11 19 -25 36 -29 34 -30 38 -12 62 13 18 15 18 36 -5 12 -13 24 -33 27
-45 3 -11 19 -26 37 -32 22 -9 46 -34 77 -80 l45 -67 77 -5 c71 -5 80 -8 110
-37 30 -31 31 -33 11 -33 -32 0 -35 -13 -9 -44 l22 -28 18 27 c10 16 40 50 66
77 26 26 59 73 74 104 15 31 29 54 31 52 2 -2 0 -21 -5 -43 -5 -22 -8 -41 -6
-42 2 -2 26 2 55 9 38 9 51 16 51 30 0 32 14 19 48 -42 18 -33 34 -60 36 -60
4 0 -35 178 -63 288 -12 46 -19 87 -16 92 10 17 25 11 35 -13 7 -17 9 -18 9
-4 1 10 -6 34 -14 54 -19 45 -19 46 6 33 27 -15 30 -10 20 26 -5 19 -4 38 6
57 16 32 24 33 48 7 15 -17 16 -26 6 -83 -16 -94 -15 -106 14 -113 33 -8 48
-38 40 -80 -3 -19 -4 -34 -1 -34 2 0 19 24 37 52 l34 53 3 -36 c3 -35 3 -35
50 -35 l47 1 3 -45 c3 -44 16 -70 33 -70 5 0 9 8 9 18 0 22 18 83 29 101 8 12
12 12 25 2 13 -11 16 -7 21 26 10 59 11 60 29 26 9 -18 18 -33 20 -33 3 0 14
16 26 35 26 41 37 44 46 10 10 -40 23 -29 30 25 7 56 19 72 28 37 8 -30 79
-70 95 -54 13 12 41 -12 84 -73 l18 -25 23 29 24 28 46 -42 c79 -73 101 -142
122 -373 6 -76 26 -91 41 -29 l9 37 8 -37 7 -38 64 0 65 0 0 49 c0 73 5 81 57
81 43 0 103 22 103 39 0 5 -29 12 -64 16 l-65 6 6 52 c9 79 16 87 73 87 27 0
51 -4 55 -9 3 -5 -4 -26 -16 -45 -23 -40 -22 -41 16 -24 27 12 31 32 16 85 -9
31 -8 31 34 42 71 18 71 18 85 -61 21 -118 26 -118 33 -1 4 61 13 131 22 155
22 62 22 63 -2 62 -13 -1 -23 2 -23 6 0 8 46 30 63 30 7 0 30 25 52 56 128
179 161 222 188 251 l30 32 -22 18 -22 18 27 40 c29 44 114 135 125 135 4 0 4
-13 -1 -29 -6 -22 -4 -33 7 -43 12 -10 17 -9 26 7 17 29 15 56 -5 97 -24 49
-23 51 10 43 26 -5 35 1 101 77 39 46 74 93 77 106 4 12 11 22 18 22 27 -1 37
-20 42 -81 5 -67 12 -133 40 -334 22 -163 17 -209 -37 -334 -35 -82 -50 -108
-74 -121 -20 -11 -30 -25 -30 -41 0 -13 -11 -41 -24 -63 -23 -37 -65 -186 -52
-186 3 0 30 32 60 70 29 39 54 70 55 70 1 0 0 -31 -2 -69 -4 -63 7 -111 26
-111 4 0 18 39 30 87 26 98 60 183 73 183 14 0 39 -57 39 -89 0 -34 -26 -108
-47 -132 -19 -23 -5 -30 28 -14 41 22 44 19 41 -30 -4 -39 -2 -45 16 -45 14 0
21 9 26 31 8 41 7 99 -3 124 -8 19 -8 19 -15 -2 -8 -24 -21 -30 -31 -13 -7 11
18 75 33 84 18 11 40 -4 53 -36 9 -23 10 -43 1 -93 -16 -85 -15 -95 8 -95 15
0 20 7 20 28 0 15 3 45 7 67 l6 40 26 -82 26 -82 58 35 58 34 44 -30 c24 -16
59 -48 77 -69 l34 -40 27 54 c15 30 31 55 36 55 5 0 24 -26 42 -57 18 -32 34
-60 36 -62 2 -3 16 7 31 21 15 14 40 32 57 39 26 12 32 23 44 79 7 36 15 67
17 69 2 2 25 -14 51 -36 77 -64 277 -193 298 -193 20 0 -56 65 -125 108 -41
25 -85 55 -98 66 -26 23 -42 73 -35 110 6 28 23 36 23 11 0 -18 12 -19 28 -3
10 10 16 7 28 -10 l15 -22 29 20 c15 11 47 22 71 24 41 4 44 6 41 30 -2 19 2
26 15 26 15 1 14 4 -7 21 -14 12 -34 28 -45 35 -17 13 -18 16 -5 24 8 5 19 11
24 13 4 1 -1 18 -13 37 -11 19 -21 38 -21 42 0 4 20 0 45 -10 24 -9 47 -13 51
-10 3 4 -12 41 -35 82 -22 41 -41 80 -41 85 0 5 56 -17 125 -51 69 -33 128
-59 130 -56 2 2 -46 40 -108 85 -62 45 -121 89 -132 100 -88 80 -232 187 -475
355 -197 135 -488 382 -611 516 -80 89 -199 268 -199 301 0 14 14 74 32 133
l32 108 68 -7 c78 -7 140 11 178 52 30 32 22 31 -52 -6 -33 -17 -64 -27 -68
-22 -4 4 -15 28 -25 53 -9 25 -19 51 -22 57 -3 7 2 13 10 13 17 0 27 21 27 54
0 48 97 156 139 156 13 0 13 2 -1 16 -14 14 -18 14 -47 0 -39 -21 -120 -36
-126 -25 -5 8 41 299 49 306 11 11 15 -73 6 -133 -13 -95 -13 -99 4 -85 19 16
36 97 36 169 0 41 6 67 22 92 l22 35 7 -40 c4 -22 8 -81 8 -132 1 -50 6 -95
11 -98 6 -3 10 -3 10 2 1 15 20 148 26 177 3 15 21 45 40 66 l33 37 -28 39
-29 39 50 43 c57 48 91 53 132 21 45 -35 50 -65 22 -113 -35 -61 -56 -141 -56
-218 0 -59 2 -68 18 -68 14 0 30 32 70 134 54 138 58 158 61 284 1 75 10 89
29 47 31 -68 10 -175 -80 -405 -82 -211 -83 -212 -171 -308 -82 -89 -94 -115
-30 -63 79 63 152 168 198 282 39 99 46 104 162 117 502 57 843 402 843 852 0
235 -78 402 -274 587 -144 137 -337 270 -583 403 l-102 55 -25 105 c-24 101
-31 142 -41 240 -2 25 -9 95 -15 155 -23 219 -115 499 -215 649 -22 33 -64 84
-93 115 -51 52 -55 54 -68 36 -13 -18 -14 -17 -14 13 0 21 -9 39 -27 56 -27
25 -133 86 -149 86 -5 0 16 -25 46 -55 53 -54 58 -65 19 -45 -13 8 -19 7 -19
0 0 -18 29 -80 45 -96 8 -9 15 -23 15 -32 0 -19 69 -104 70 -86 0 6 -7 31 -15
54 -23 65 -18 80 10 31 41 -71 85 -121 107 -121 16 0 19 -5 15 -25 -3 -17 1
-29 12 -35 11 -5 25 -43 40 -104 23 -92 23 -98 7 -139 -9 -23 -16 -64 -16 -90
l0 -47 -40 0 c-22 0 -40 -2 -40 -4 0 -2 7 -23 15 -46 19 -55 19 -64 -2 -55
-10 4 -40 16 -66 27 l-49 18 8 -22 c4 -13 9 -30 12 -38 3 -8 -8 -3 -25 13 -16
15 -32 27 -36 27 -4 0 4 -25 18 -56 14 -31 25 -58 25 -61 0 -2 -13 3 -30 12
-26 13 -30 21 -30 57 l0 42 -28 -27 c-35 -34 -40 -34 -34 2 4 26 -1 32 -39 52
-55 27 -103 28 -156 1 l-41 -22 -32 49 c-46 72 -65 85 -41 27 11 -25 18 -46
15 -46 -2 0 -22 27 -43 61 -24 38 -57 73 -89 95 -70 47 -124 127 -163 243 -23
69 -7 51 51 -58 44 -84 67 -117 75 -109 3 2 -15 46 -40 97 -25 50 -45 94 -45
96 0 2 8 1 17 -2 13 -5 15 -3 8 13 -23 55 -29 95 -17 114 7 11 18 29 24 40 10
16 10 24 -1 41 -11 19 -11 21 2 16 22 -8 27 2 16 30 -5 14 -8 28 -6 30 3 2 25
-15 50 -37 53 -48 59 -51 63 -30 1 8 6 31 9 50 l7 35 -25 -30 -24 -29 -18 34
c-10 19 -29 60 -41 90 l-23 55 -1 -40 c-1 -38 -1 -39 -16 -20 -17 22 -13 60
10 107 8 15 10 28 5 28 -6 0 -9 14 -7 31 3 28 -1 33 -42 49 -50 21 -119 24
-165 8z m976 -440 c17 -24 18 -29 6 -19 -18 14 -42 51 -33 51 3 0 15 -15 27
-32z m70 -569 l7 -34 -24 28 c-13 16 -22 33 -18 38 11 18 28 3 35 -32z m-358
-78 c10 -17 14 -31 9 -31 -17 0 -72 73 -72 96 0 13 44 -33 63 -65z m-1343 -26
c174 -15 380 -56 380 -77 0 -14 -87 -8 -172 12 -46 11 -123 25 -173 30 -110
12 -194 30 -202 43 -3 5 14 7 43 3 27 -3 83 -8 124 -11z m-355 -19 c50 -8 122
-17 160 -21 190 -18 429 -62 574 -106 35 -10 136 -30 225 -44 234 -36 439 -87
751 -185 66 -21 181 -57 255 -80 165 -52 267 -93 431 -175 342 -171 671 -423
768 -588 66 -113 99 -243 81 -322 l-7 -30 -11 28 c-7 16 -12 38 -12 49 0 12
-14 51 -31 87 -17 36 -33 80 -36 99 -3 19 -12 36 -19 39 -8 3 -14 14 -14 26 0
19 -1 19 -18 4 -10 -10 -23 -17 -28 -17 -8 0 -68 58 -173 167 -34 35 -52 44
-100 54 -57 12 -59 13 -48 36 15 33 2 42 -76 56 -55 9 -67 15 -69 31 -3 18
-10 21 -47 21 -27 0 -46 5 -48 13 -3 7 5 12 21 12 47 0 27 18 -46 43 -40 13
-109 40 -152 58 -57 24 -80 30 -83 22 -3 -7 -9 -13 -14 -13 -5 0 -9 6 -9 13
-1 32 -16 39 -48 23 -42 -22 -44 -21 -72 23 -24 40 -40 45 -40 11 0 -17 -4
-16 -54 8 -57 28 -63 42 -18 42 15 0 34 5 42 10 18 12 -5 13 -167 10 -62 -1
-113 0 -113 3 0 3 21 18 48 33 l47 28 -40 8 c-77 14 -103 10 -107 -14 -4 -20
-6 -18 -20 14 -16 36 -18 37 -50 28 -46 -14 -50 -13 -43 11 7 21 7 21 -34 -2
-42 -23 -50 -34 -29 -41 15 -5 1 -28 -18 -28 -8 0 -14 6 -14 14 0 7 -3 27 -6
44 -5 25 -3 30 11 29 10 -1 20 4 22 11 3 7 -3 12 -14 12 -11 0 -25 -6 -32 -12
-10 -11 -14 -10 -21 2 -5 8 -15 24 -24 35 -14 19 -15 18 -9 -17 l5 -37 -38 10
c-48 13 -101 45 -114 68 -8 16 -16 17 -70 8 -53 -9 -63 -8 -82 9 -11 10 -27
35 -36 54 l-15 35 -15 -32 -15 -31 -26 18 c-15 11 -59 23 -106 30 -98 13 -234
73 -215 95 23 28 -22 29 -96 1 -23 -8 -50 -12 -62 -9 -17 4 -19 9 -11 30 12
33 12 33 -15 33 -13 0 -35 -10 -50 -21 -28 -22 -116 -36 -116 -18 0 5 -11 2
-25 -7 -16 -11 -34 -14 -51 -10 -17 5 -30 3 -35 -5 -5 -9 -19 -2 -49 24 -22
21 -45 35 -51 31 -6 -3 -22 -1 -37 4 -15 6 -42 13 -59 16 -40 7 -44 -11 -11
-57 l23 -32 -34 28 c-40 34 -50 34 -43 2 5 -31 -2 -31 -53 0 -34 21 -37 25
-17 26 37 2 42 4 42 12 0 4 0 14 0 22 0 23 -14 18 -60 -20 -35 -29 -45 -33
-62 -24 -23 13 -37 4 -20 -13 17 -17 15 -26 -9 -39 -19 -10 -20 -8 -14 10 3
12 3 21 -2 21 -4 0 -15 5 -23 10 -12 7 -11 13 9 34 14 14 22 28 20 30 -2 3
-26 -6 -52 -20 -60 -30 -61 -30 -52 3 l7 28 -22 -28 c-23 -29 -78 -62 -87 -53
-3 3 0 12 7 21 19 22 9 27 -70 33 -79 5 -88 -3 -36 -39 41 -28 32 -39 -34 -39
-53 0 -123 30 -142 59 -15 25 -28 27 -28 5 0 -10 -6 -14 -14 -11 -8 3 -17 1
-19 -6 -3 -8 -9 -6 -19 7 -14 18 -15 17 -44 -8 -23 -20 -25 -25 -11 -26 9 0
17 -4 17 -10 0 -14 -52 -12 -91 4 -22 8 -58 11 -101 8 -72 -5 -70 -3 -83 -74
-6 -39 -12 -42 -52 -32 -18 5 -23 14 -23 40 l0 33 -45 -17 c-50 -18 -56 -27
-24 -37 12 -4 17 -10 13 -15 -20 -18 -112 -40 -166 -40 -32 0 -58 -4 -58 -8 0
-5 11 -19 25 -32 36 -33 31 -39 -22 -28 -53 10 -109 3 -165 -19 -49 -20 -48
-33 2 -33 43 0 45 -4 30 -44 l-9 -25 -54 29 c-50 26 -56 27 -76 14 -19 -14
-21 -13 -21 0 0 23 -10 19 -60 -24 -24 -22 -46 -38 -48 -36 -2 2 9 28 23 57
57 112 225 249 408 333 212 97 487 147 997 180 93 6 320 -4 415 -18z m820 -66
c22 -11 59 -20 82 -20 32 0 43 -4 43 -15 0 -19 -13 -19 -78 0 -32 10 -66 13
-87 9 -36 -6 -41 -1 -29 30 8 21 22 20 69 -4z m215 -50 c13 -9 13 -10 0 -10
-8 0 -22 5 -30 10 -13 9 -13 10 0 10 8 0 22 -5 30 -10z m322 -80 c19 -8 16 -9
-17 -4 -22 3 -47 10 -55 15 -20 12 40 3 72 -11z m-2055 -57 c-4 -3 -18 -2 -33
1 l-27 7 24 25 24 25 8 -26 c5 -14 7 -29 4 -32z m1148 -603 c285 -13 824 -106
883 -152 10 -7 37 -29 62 -49 25 -20 63 -46 85 -57 22 -12 60 -39 85 -61 25
-23 59 -46 77 -52 29 -9 31 -13 28 -47 -3 -20 -2 -29 1 -19 8 27 23 17 52 -36
22 -38 24 -49 13 -56 -14 -9 -19 -93 -6 -123 5 -13 2 -18 -8 -18 -9 0 -19 -9
-22 -20 -5 -15 -12 -19 -26 -15 -19 6 -19 5 -5 -29 13 -32 7 -51 -9 -26 -9 14
-45 32 -45 23 0 -5 29 -28 65 -52 57 -39 95 -77 95 -96 0 -3 -21 8 -46 26 -37
25 -44 28 -35 11 16 -30 14 -33 -14 -26 -15 4 -25 2 -25 -5 0 -20 -24 -11 -69
24 -24 19 -46 35 -48 35 -3 0 -2 -12 1 -26 4 -16 3 -23 -3 -20 -6 4 -65 9
-133 11 -126 4 -249 -11 -539 -66 -111 -22 -127 -20 -231 26 -16 6 -18 1 -18
-33 0 -23 -5 -53 -10 -68 -9 -23 -7 -31 15 -54 l26 -27 -21 -79 c-23 -88 -40
-220 -40 -304 1 -71 10 -53 44 85 46 187 48 194 60 204 6 5 38 11 72 13 38 2
80 14 112 29 l51 25 12 -28 c6 -15 29 -44 50 -63 69 -62 133 -46 200 51 16 24
33 44 37 44 4 0 19 -18 34 -39 l27 -38 -24 -23 c-36 -34 -30 -45 11 -20 54 34
51 17 -7 -33 -62 -54 -176 -114 -239 -126 l-45 -8 28 -11 c39 -17 99 -15 165
4 82 24 116 43 222 129 106 86 135 103 200 120 42 11 45 13 48 49 3 30 6 36
21 31 10 -3 24 1 30 9 10 12 8 19 -8 35 -22 22 -28 74 -12 100 7 10 11 5 16
-17 3 -17 17 -47 31 -67 13 -20 24 -38 24 -40 0 -3 -20 -25 -45 -49 -25 -25
-45 -50 -45 -54 0 -5 25 -4 56 4 55 13 56 12 50 -9 -4 -12 -14 -67 -22 -122
-9 -55 -22 -115 -30 -133 -12 -28 -11 -38 6 -82 24 -61 24 -64 4 -56 -13 5
-15 1 -12 -16 3 -13 11 -51 19 -85 7 -34 10 -65 7 -68 -3 -3 -19 -10 -37 -15
-33 -9 -34 -3 -3 32 10 12 12 28 8 52 -8 40 -26 58 -26 26 0 -12 -16 -36 -35
-54 -31 -29 -35 -39 -35 -82 0 -28 -7 -59 -15 -71 -14 -20 -12 -23 38 -59 38
-28 47 -39 35 -42 -21 -4 -22 -18 -5 -50 l13 -23 19 35 c29 54 38 43 14 -16
-25 -65 -59 -159 -59 -166 0 -2 9 -2 20 1 24 6 25 3 5 -27 -9 -13 -18 -48 -21
-77 -8 -74 -21 -114 -56 -166 -17 -24 -28 -46 -25 -49 3 -3 23 4 46 15 22 12
43 21 47 21 10 0 -4 -156 -21 -218 -45 -172 -326 -785 -407 -889 -103 -130
-140 -160 -275 -225 -178 -84 -247 -108 -285 -97 -44 12 -76 36 -98 72 -26 42
-27 66 -2 44 25 -23 31 -21 26 6 -5 20 -4 21 8 4 38 -55 37 -55 38 3 1 50 2
53 13 32 l13 -23 40 44 c24 26 73 61 121 86 96 50 202 145 340 305 111 128
165 208 188 274 8 26 36 74 61 107 78 103 103 150 185 357 55 141 -46 37 -125
-126 -38 -78 -72 -132 -115 -180 -33 -38 -73 -94 -88 -124 l-27 -55 -10 29
-10 29 -10 -41 c-9 -34 -28 -57 -116 -133 -57 -51 -116 -99 -131 -107 -25 -12
-27 -12 -34 9 -6 21 -7 21 -20 -9 -16 -36 -19 -38 -144 -70 -51 -13 -113 -35
-137 -49 -31 -18 -62 -27 -102 -29 -33 -1 -71 -10 -89 -21 -28 -17 -34 -17
-114 0 -101 20 -204 61 -282 113 -94 63 -180 145 -211 201 -48 89 -14 75 61
-25 l22 -29 -9 34 c-11 38 -45 79 -103 122 l-38 28 45 6 c26 4 46 11 46 15 0
5 -18 31 -40 59 -29 37 -47 51 -65 51 -29 0 -30 -8 -10 -57 8 -20 14 -38 12
-40 -2 -2 -37 32 -78 75 -79 83 -180 242 -154 242 12 0 11 9 -5 49 -17 45 -18
62 -10 173 4 68 13 135 19 151 15 39 1 33 -40 -15 -59 -71 -62 -82 -55 -187 3
-53 8 -109 11 -126 3 -17 -3 -7 -14 22 -33 88 -46 226 -31 314 16 87 18 177 6
237 -8 39 -7 42 12 42 19 0 21 4 16 30 -4 17 -4 30 0 30 3 0 36 -20 73 -44 38
-24 70 -43 72 -41 2 2 -18 43 -43 91 -25 47 -46 88 -46 91 0 2 10 1 23 -3 17
-5 13 3 -21 40 -75 81 -95 138 -161 456 -4 19 -4 46 0 60 4 14 7 49 8 78 1 55
21 75 21 20 0 -29 1 -30 14 -13 13 19 53 15 41 -4 -3 -6 3 -15 14 -21 11 -5
55 -35 97 -66 73 -52 80 -55 133 -53 33 1 72 -5 95 -15 49 -21 81 -20 131 3
38 18 103 76 94 85 -2 2 -31 1 -64 -3 -129 -14 -256 23 -325 94 l-35 36 37
-15 c21 -9 39 -16 41 -16 1 0 1 15 -1 34 -6 55 15 53 69 -7 84 -95 153 -95
222 -1 18 24 37 43 42 44 6 0 41 -25 78 -56 37 -30 67 -53 67 -49 0 3 -7 19
-15 35 -14 27 -14 30 0 30 9 0 15 9 15 21 l0 21 33 -20 c37 -23 77 -77 77
-103 0 -22 -8 -23 -45 -9 -15 6 -25 7 -23 3 2 -5 18 -37 37 -72 l33 -65 -22
-18 -22 -18 29 -11 c15 -6 38 -8 50 -6 13 2 23 1 23 -2 0 -24 -21 -177 -25
-192 -4 -11 -2 -19 2 -19 5 0 24 44 42 97 29 85 33 110 33 197 -1 56 -10 164
-21 241 -11 77 -22 168 -23 203 -2 34 -6 62 -9 62 -3 0 -25 -20 -48 -45 -42
-45 -44 -46 -89 -40 -71 10 -230 55 -289 82 -150 69 -273 160 -273 202 0 10 5
32 11 50 9 25 15 30 30 26 26 -9 24 11 -6 50 l-24 33 22 6 c16 4 28 -1 43 -20
l21 -25 24 20 c24 20 24 20 2 21 -23 0 -83 56 -83 76 0 7 8 15 18 19 15 6 15
8 -5 18 l-22 12 37 57 c67 103 166 226 197 244 24 14 61 20 175 24 219 10 221
10 425 0z m-686 -76 l-35 -35 -24 26 -23 25 29 0 c16 1 40 7 54 15 38 21 38 8
-1 -31z m-99 -96 c-24 -29 -46 -53 -51 -52 -5 1 -14 2 -21 3 -6 0 1 14 16 30
l28 29 -32 7 c-17 4 -29 10 -25 13 7 7 117 30 123 26 2 -1 -15 -26 -38 -56z
m-615 -675 c77 -51 123 -94 140 -129 13 -29 20 -33 41 -28 20 5 24 2 24 -15 0
-38 -22 -171 -29 -171 -3 1 -17 24 -31 52 -14 28 -58 87 -99 130 -60 64 -80
79 -112 84 -21 4 -39 11 -39 15 0 13 51 89 59 89 3 0 24 -12 46 -27z m595 -72
c28 -12 39 -22 30 -25 -26 -9 -133 -26 -163 -26 l-29 0 17 28 c9 15 26 35 37
44 20 18 24 18 108 -21z m1820 -72 c32 -7 50 -16 50 -25 0 -18 -86 -74 -113
-74 -28 0 -138 61 -134 74 4 11 82 33 124 35 12 1 45 -4 73 -10z m814 -35 c9
-3 16 -10 16 -14 0 -5 -42 -31 -92 -58 -123 -66 -174 -113 -238 -219 -62 -103
-59 -98 -65 -92 -6 7 24 118 42 154 26 50 123 163 161 187 67 42 134 58 176
42z m-2426 -31 c5 -17 -26 -29 -40 -15 -6 6 -7 15 -3 22 9 14 37 9 43 -7z
m1241 -37 c9 -10 8 -16 -4 -26 -19 -16 -41 1 -32 24 8 20 21 20 36 2z m551
-668 c0 -12 7 -29 15 -38 18 -20 48 -90 38 -90 -19 1 -55 42 -64 72 -12 43
-12 91 1 83 6 -3 10 -16 10 -27z m-2250 -334 c13 -40 6 -60 -8 -23 -20 54 -24
71 -14 65 6 -3 16 -22 22 -42z m89 -644 c0 -8 -7 -1 -14 15 -8 17 -14 37 -14
45 0 8 7 2 14 -15 8 -16 14 -37 14 -45z m2241 -14 c0 -19 -4 -38 -10 -41 -6
-4 -9 10 -8 34 2 50 18 55 18 7z m29 -85 c-5 -15 -23 -41 -39 -56 -33 -31 -37
-30 -17 6 39 73 75 106 56 50z m-1951 -97 c-4 -3 -12 5 -18 18 -12 22 -12 22
6 6 10 -10 15 -20 12 -24z m1852 -67 c0 -2 -10 -12 -21 -23 -22 -19 -22 -19
-10 4 10 18 31 31 31 19z m-2120 -508 c0 -4 -11 -9 -24 -11 -19 -4 -26 0 -30
18 -3 12 -9 30 -13 40 -5 13 4 10 30 -12 20 -16 37 -32 37 -35z m43 -40 c-4
-12 -11 -18 -20 -15 -8 3 -19 6 -24 6 -16 0 -10 18 9 23 34 9 40 7 35 -14z
m-26 -63 c-5 -12 -57 -29 -57 -19 0 2 12 15 28 28 26 23 39 19 29 -9z m411
-109 c8 -10 6 -16 -9 -25 -17 -11 -19 -9 -19 13 0 27 12 32 28 12z m377 -52
c16 -13 27 -26 24 -29 -3 -3 -21 8 -40 24 -41 35 -27 40 16 5z m719 -37 c7
-28 8 -78 1 -78 -12 0 -85 53 -80 58 9 9 60 41 66 41 4 1 9 -9 13 -21z m-90
-53 c14 -10 23 -21 21 -26 -14 -22 -165 -41 -165 -20 0 16 81 70 100 66 10 -2
30 -11 44 -20z m1646 -93 c-5 -2 -17 1 -27 7 -10 6 -12 11 -5 11 8 0 11 9 7
28 -6 25 -4 24 14 -8 10 -19 15 -36 11 -38z m-3085 18 l16 -30 -31 0 c-32 0
-33 2 -24 38 9 30 21 28 39 -8z m1255 5 c0 -3 -9 -24 -21 -47 -22 -44 -29 -42
-53 15 l-15 37 45 0 c24 0 44 -2 44 -5z m1935 -56 c11 -33 -3 -35 -33 -6 l-27
27 27 0 c18 0 29 -7 33 -21z m-538 -90 l-15 -34 -1 37 c-1 20 2 44 6 54 6 16
7 16 16 -2 6 -14 4 -32 -6 -55z m400 -31 c-2 -18 -4 -4 -4 32 0 36 2 50 4 33
2 -18 2 -48 0 -65z m-1973 48 c22 -47 21 -86 -3 -86 -14 0 -20 10 -25 46 -3
26 -6 53 -6 60 0 25 17 15 34 -20z"/>
<path d="M4040 4772 c0 -14 38 -44 50 -40 6 2 -3 14 -19 26 -17 12 -31 19 -31
14z"/>
<path d="M4376 3709 c-14 -11 -26 -24 -26 -29 0 -11 69 32 70 43 0 13 -17 8
-44 -14z"/>
<path d="M3171 3525 l-34 -141 24 -37 c13 -20 27 -37 31 -37 9 0 20 172 16
270 l-3 85 -34 -140z"/>
<path d="M2888 2878 c-2 -15 -16 -29 -41 -41 -21 -10 -42 -28 -47 -43 -12 -29
5 -162 26 -213 17 -42 18 -52 1 -45 -21 8 -32 -13 -56 -109 -43 -164 -24 -327
36 -319 21 3 23 0 18 -42 -2 -24 -7 -56 -11 -69 -5 -22 -3 -25 15 -20 11 3 28
2 37 -1 13 -5 14 -9 4 -21 -10 -12 -10 -21 0 -45 l12 -30 30 18 c27 15 77 72
64 72 -2 0 -16 -4 -30 -10 -36 -13 -32 0 12 48 l37 40 103 6 102 6 0 -71 c0
-62 2 -70 17 -67 22 4 41 113 25 139 -9 13 -4 16 26 17 82 3 121 30 166 116
30 56 27 70 -7 38 -25 -24 -44 -27 -66 -13 -12 8 -12 13 -3 24 10 11 9 23 -4
53 l-17 39 -17 -40 c-35 -81 -129 -134 -214 -121 -65 11 -136 56 -168 105 -35
56 -36 97 -3 161 30 60 31 70 4 122 -18 35 -23 39 -31 25 -5 -9 -17 -21 -27
-26 -15 -9 -17 -6 -13 20 2 16 -1 35 -7 43 -9 11 -9 15 0 18 8 3 5 17 -10 47
l-22 42 24 42 c14 23 37 53 51 66 30 28 33 46 10 55 -22 9 -22 8 -26 -16z
m-33 -490 c-33 -85 -36 -91 -58 -82 -21 8 -21 26 -1 67 18 36 75 99 82 92 3
-3 -7 -38 -23 -77z"/>
<path d="M4296 2368 c9 -32 58 -118 66 -118 12 0 -11 62 -37 102 -29 43 -40
49 -29 16z"/>
<path d="M2846 1829 c-65 -10 -327 -100 -321 -109 3 -5 23 -11 45 -15 49 -8
55 -16 31 -46 -11 -15 -22 -58 -30 -112 -11 -80 -10 -92 6 -125 17 -35 21 -37
62 -35 38 2 43 0 38 -18 -7 -25 1 -24 31 4 21 18 24 19 19 4 -5 -14 -3 -17 11
-13 10 3 66 12 126 20 126 17 208 8 290 -30 28 -13 53 -19 54 -14 2 6 14 10
26 10 13 0 50 13 82 30 84 42 107 43 114 6 l5 -30 15 30 15 29 3 -49 c3 -44 4
-47 17 -30 13 17 14 14 15 -32 0 -48 9 -64 37 -64 10 0 -8 96 -33 172 l-25 76
-32 -9 c-18 -5 -33 -9 -34 -9 -11 0 4 32 42 91 50 78 51 79 31 79 -8 0 -17 4
-21 9 -3 6 25 13 65 17 38 3 70 10 70 14 0 3 -39 21 -87 39 -49 18 -123 49
-166 68 -84 37 -86 37 -181 4 -76 -27 -131 -27 -176 0 -19 12 -38 26 -41 32
-9 13 -44 15 -103 6z m124 -174 c47 -8 114 -15 150 -15 64 0 280 -39 280 -51
0 -3 -29 -33 -63 -67 -43 -41 -75 -63 -98 -67 -37 -7 -340 27 -401 45 -20 6
-58 28 -85 50 -26 22 -53 40 -60 40 -18 0 -16 10 4 32 16 18 17 18 45 -9 27
-26 28 -26 28 -5 0 19 4 21 30 16 25 -6 30 -3 30 13 0 39 14 40 140 18z"/>
<path d="M3443 1226 c15 -14 33 -26 40 -26 13 1 -16 26 -48 41 -13 7 -10 1 8
-15z"/>
<path d="M3580 1207 c0 -38 -8 -45 -28 -25 -19 19 -27 0 -9 -20 23 -25 22 -29
-14 -63 -18 -16 -29 -32 -26 -35 3 -4 37 8 76 26 66 31 70 35 64 59 -8 35 -13
39 -13 12 0 -16 -5 -21 -17 -19 -13 2 -19 15 -21 48 -4 55 -12 66 -12 17z"/>
<path d="M2941 6254 c-153 -41 -286 -148 -408 -329 -153 -228 -211 -354 -114
-247 l48 53 13 -48 c24 -88 48 -133 75 -143 47 -18 59 -3 91 109 3 10 8 11 18
2 10 -8 21 -8 41 -1 43 16 39 7 -18 -40 -58 -47 -42 -48 53 -2 30 15 59 29 65
31 5 2 -14 -21 -42 -51 -29 -29 -53 -57 -53 -61 0 -4 36 11 81 34 45 22 84 38
87 35 3 -3 0 -18 -7 -32 -22 -49 11 -21 77 64 55 71 66 81 83 72 17 -9 24 1
76 102 42 83 58 107 61 91 2 -13 7 -23 12 -23 14 0 21 44 27 172 5 110 3 131
-11 154 -10 14 -16 28 -13 30 3 3 39 2 81 -2 62 -5 76 -10 76 -23 0 -10 -11
-21 -25 -27 l-24 -9 30 -34 c36 -39 49 -31 49 30 l0 36 88 12 c89 12 162 37
162 54 0 5 -14 7 -32 4 -142 -25 -200 -28 -302 -12 -128 19 -273 18 -345 -1z"/>
<path d="M4186 6237 c-11 -34 -14 -147 -5 -147 16 0 51 20 77 43 20 19 22 19
22 3 0 -13 5 -16 17 -12 9 4 20 2 23 -5 8 -11 50 -4 50 9 -1 8 -66 54 -133 94
-33 19 -49 24 -51 15z"/>
<path d="M3256 6086 c-18 -40 -12 -55 22 -56 6 0 12 -4 12 -8 0 -4 -6 -14 -12
-21 -11 -10 -8 -16 12 -31 23 -18 26 -18 32 -2 4 9 7 32 7 51 1 30 -1 33 -23
29 -23 -5 -25 -2 -28 36 l-4 41 -18 -39z"/>
<path d="M4021 6041 c-9 -6 -11 -18 -7 -35 8 -32 22 -34 30 -3 12 46 6 56 -23
38z"/>
<path d="M4370 5390 c-25 -16 -49 -32 -55 -34 -9 -4 21 -36 35 -36 3 0 23 23
43 50 21 28 34 50 30 49 -5 0 -28 -13 -53 -29z"/>
<path d="M1654 3169 c2 -13 7 -39 10 -57 7 -40 65 -182 75 -182 16 0 -8 132
-33 184 -31 63 -60 94 -52 55z"/>
<path d="M1802 3012 c-59 -83 -66 -212 -16 -306 64 -119 74 -145 84 -215 14
-97 34 -131 93 -155 26 -11 50 -16 54 -12 9 9 -55 66 -73 66 -25 0 -39 34 -40
97 0 34 3 63 8 63 4 0 8 -3 8 -7 0 -5 16 -26 35 -48 l35 -40 -6 53 c-6 49 -11
57 -90 135 l-83 83 5 130 c3 71 10 139 16 151 21 44 1 47 -30 5z"/>
<path d="M1897 2873 c-3 -15 -1 -36 3 -47 7 -16 9 -9 9 27 1 52 -4 61 -12 20z"/>
<path d="M1880 2771 c0 -18 49 -91 62 -91 10 0 -13 44 -41 80 -13 16 -21 20
-21 11z"/>
<path d="M4904 2630 c-58 -25 -137 -106 -159 -163 -10 -26 -15 -50 -11 -54 3
-4 29 15 57 43 57 56 164 183 158 188 -2 2 -22 -4 -45 -14z"/>
<path d="M4433 1267 c-46 -49 -114 -139 -109 -144 16 -16 102 72 131 134 22
46 15 50 -22 10z"/>
<path d="M4405 1140 c-3 -5 -1 -10 4 -10 6 0 11 5 11 10 0 6 -2 10 -4 10 -3 0
-8 -4 -11 -10z"/>
<path d="M4357 1092 c-32 -33 -36 -54 -6 -26 20 18 44 54 36 54 -2 0 -15 -13
-30 -28z"/>
<path d="M4271 992 c-33 -43 -41 -63 -16 -42 23 19 58 70 52 76 -2 3 -19 -13
-36 -34z"/>
<path d="M621 754 c-19 -8 -32 -17 -28 -20 3 -3 22 4 44 15 44 23 34 27 -16 5z"/>
<path d="M5850 421 c0 -10 52 -51 65 -51 11 0 -5 19 -35 40 -17 12 -30 17 -30
11z"/>
<path d="M5799 340 c38 -32 158 -99 147 -81 -13 20 -156 112 -174 111 -4 -1 8
-14 27 -30z"/>
<path d="M5615 280 c-14 -16 -13 -19 17 -42 66 -50 79 -53 99 -27 10 13 17 28
16 32 -1 5 -28 19 -59 31 -54 22 -58 23 -73 6z"/>
<path d="M5815 231 c11 -13 29 -28 40 -33 20 -11 20 -11 0 11 -11 13 -29 28
-40 33 -20 11 -20 11 0 -11z"/>
<path d="M3800 118 c0 -39 19 -112 27 -104 9 9 -8 136 -18 136 -5 0 -9 -15 -9
-32z"/>
</g>
</svg>
